<svg version="1.1" viewBox="0 0 976 1600" xmlns="http://www.w3.org/2000/svg">
 <defs>
  <style>.cls-1{fill:#992d17;}.cls-2{fill:#592116;}</style>
 </defs>
 <path class="cls-2" d="m0 20v1560a20 20 0 0 0 20 20h936a20 20 0 0 0 20-20v-1560a20 20 0 0 0-20-20h-936a20 20 0 0 0-20 20zm924 1528h-872v-1496h872z"/>
 <path class="cls-1" d="m964 20.031v1561.9c-1e-5 3.3306-2.7091 6.0306-6.0508 6.0306h-937.9c-3.3418 0-8.0508-4.7-8.0508-8.0306v-1559.9c0-3.3306 4.7091-8.0306 8.0508-8.0306h935.9c3.3418-1e-6 8.0508 4.7 8.0508 8.0306z" fill="#992d17" stroke-width="1.0068"/>
</svg>
